<svg version="1.2" xmlns="http://www.w3.org/2000/svg" xmlns:xlink="http://www.w3.org/1999/xlink" overflow="visible" preserveAspectRatio="none" viewBox="0 0 24 24" width="37" height="37"><g><defs> </defs> <rect display="none" fill="#FFA400" width="24" height="24" style="fill: rgb(204, 204, 204);" vector-effect="non-scaling-stroke"/> <rect id="_x3C_Slice_x3E__81_" display="none" fill="none" width="24" height="24" style="fill: rgb(204, 204, 204);" vector-effect="non-scaling-stroke"/> <path fill-rule="evenodd" clip-rule="evenodd" d="M8,20c0,0-2,2-3,2c-1.657,0-3-1.343-3-3c0-1,2-3,2-3l3.908-3.908 C7.613,12.037,7.312,12,7,12c-1.144,0-2.163,0.351-3,1l-3,3c-0.624,0.827-1,1.881-1,3c0,2.762,2.238,5,5,5c1.126,0,2.17-0.369,3-1 l3-3c0.636-0.831,1-1.87,1-3c0-0.312-0.037-0.613-0.092-0.908L8,20z M19,0c-1.125,0-2.17,0.369-3,1l-3,3c-0.636,0.832-1,1.87-1,3 c0,0.312,0.037,0.613,0.092,0.908L16,4c0,0,2-2,3-2c1.657,0,3,1.343,3,3c0,1-2,3-2,3l-3.908,3.908C16.387,11.963,16.688,12,17,12 c1.144,0,2.163-0.351,3-1l3-3c0.624-0.827,1-1.881,1-3C24,2.238,21.762,0,19,0z M7,15.5C7,16.328,7.672,17,8.5,17 c0.591,0,1.097-0.345,1.342-0.842l6.316-6.316C16.655,9.597,17,9.091,17,8.5C17,7.672,16.328,7,15.5,7 c-0.591,0-1.097,0.345-1.342,0.842l-6.316,6.316C7.345,14.403,7,14.909,7,15.5z" style="fill: rgb(204, 204, 204);" vector-effect="non-scaling-stroke"/> </g></svg>