<svg version="1.2" xmlns="http://www.w3.org/2000/svg" xmlns:xlink="http://www.w3.org/1999/xlink" overflow="visible" preserveAspectRatio="none" viewBox="-1.9879999999999995 0 56 56" width="47" height="47"><g><g xmlns:default="http://www.w3.org/2000/svg">
	<g>
		<path d="M36,34.1l2.5,7.9h2l2.4-7.8l0,0l0.1-0.3l0,0V1c0-0.6-0.4-1-1-1h-5c-0.6,0-1,0.4-1,1L36,34.1l0.3-0.1L36,34.1z M38,2h3v1    h-3V2z M38,5h3v28.7l-1.5,4.7L38,33.6V5z M47,8v2c1.7,0,3,1.3,3,3v38c0,1.7-1.3,3-3,3H5c-1.7,0-3-1.3-3-3V13c0-1.7,1.3-3,3-3h27V8    H5c-2.8,0-5,2.2-5,5v38c0,2.8,2.2,5,5,5h42c2.8,0,5-2.2,5-5V13C52,10.2,49.8,8,47,8z M8,21h15c0.6,0,1-0.4,1-1c0-0.6-0.4-1-1-1H8    c-0.6,0-1,0.4-1,1C7,20.5,7.4,21,8,21z M8,29h22c0.6,0,1-0.4,1-1c0-0.6-0.4-1-1-1H8c-0.6,0-1,0.4-1,1C7,28.6,7.4,29,8,29z M31,35    H8c-0.6,0-1,0.4-1,1c0,0.6,0.4,1,1,1h23c0.6,0,1-0.4,1-1C32,35.4,31.6,35,31,35z M31,43H8c-0.6,0-1,0.4-1,1c0,0.6,0.4,1,1,1h23    c0.6,0,1-0.4,1-1C32,43.4,31.6,43,31,43z" style="fill: rgb(158, 157, 157);" vector-effect="non-scaling-stroke"/>
	</g>
</g></g></svg>