<svg version="1.2" xmlns="http://www.w3.org/2000/svg" xmlns:xlink="http://www.w3.org/1999/xlink" overflow="visible" preserveAspectRatio="none" viewBox="0 -5.491961414790996 56 56" width="50.00000000000001" height="50.00000000000001"><path d="M51,0H5C3.7,0,2.6,0.5,1.7,1.3c-0.1,0-0.1,0.1-0.2,0.1c0,0,0,0,0,0.1C0.6,2.3,0,3.6,0,5v35c0,2.8,2.2,5,5,5h46  c2.8,0,5-2.2,5-5V5C56,2.2,53.8,0,51,0z M5,2h46c0.4,0,0.8,0.1,1.1,0.2L28,26.4L3.8,2.2C4.2,2.1,4.6,2,5,2z M2,40V5  c0-0.5,0.1-1,0.4-1.4l18.7,18.7L2.2,41.1C2.1,40.8,2,40.4,2,40z M51,43H5c-0.5,0-1-0.1-1.4-0.4l18.9-18.9l4.5,4.5c0,0,0,0,0.1,0  c0.1,0.4,0.5,0.7,0.9,0.7c0.5,0,0.8-0.3,0.9-0.7c0,0,0,0,0,0l4.5-4.5l18.9,18.9C52,42.9,51.5,43,51,43z M54,40  c0,0.4-0.1,0.8-0.2,1.2L34.9,22.3L53.6,3.6C53.9,4,54,4.5,54,5V40z" style="fill: rgb(204, 204, 204);" vector-effect="non-scaling-stroke"/><g/></svg>